<svg xmlns="http://www.w3.org/2000/svg" width="79.893" height="89.141" viewBox="0 0 79.893 89.141">
  <path id="_3867824" data-name="3867824" d="M57.9,33.428A16.714,16.714,0,1,0,41.185,16.714,16.733,16.733,0,0,0,57.9,33.428Zm0-26.464a9.75,9.75,0,1,1-9.75,9.75A9.761,9.761,0,0,1,57.9,6.964Zm37.955,61.48a3.482,3.482,0,0,1-3.482,3.482H89.237V75.06a3.482,3.482,0,1,1-6.964,0V71.926H79.139a3.482,3.482,0,1,1,0-6.964h3.134V61.828a3.482,3.482,0,1,1,6.964,0v3.134h3.134A3.482,3.482,0,0,1,95.853,68.444Zm-10.1-20.7a20.713,20.713,0,0,0-4.146.417l-.882-4.3a3.482,3.482,0,0,0-3.411-2.781H66.337a3.482,3.482,0,0,0-2.462,1.02L57.9,48.085l-5.977-5.977a3.482,3.482,0,0,0-2.462-1.02H38.481A3.482,3.482,0,0,0,35.07,43.87L26.631,84.959a3.483,3.483,0,0,0,3.411,4.182H85.755a20.7,20.7,0,0,0,0-41.393Zm-44.435.3h6.7l7.419,7.419a3.482,3.482,0,0,0,4.924,0l7.419-7.419h6.7l.554,2.7a20.674,20.674,0,0,0-4.745,31.428H34.312ZM85.755,82.177A13.733,13.733,0,1,1,99.488,68.444,13.748,13.748,0,0,1,85.755,82.177Z" transform="translate(-26.559)" fill="#0160ff"/>
</svg>
