<svg xmlns="http://www.w3.org/2000/svg" width="38" height="38" viewBox="0 0 38 38">
  <g id="Group_135" data-name="Group 135" transform="translate(180 -6807)">
    <g id="Group_134" data-name="Group 134" transform="translate(43 -31)">
      <g id="Group_133" data-name="Group 133" transform="translate(-462 -179)">
        <g id="Path_70" data-name="Path 70" transform="translate(239 7017)" fill="none">
          <path d="M19,0A19,19,0,1,1,0,19,19,19,0,0,1,19,0Z" stroke="none"/>
          <path d="M 19 1 C 14.19202995300293 1 9.671829223632813 2.872329711914063 6.272079467773438 6.272079467773438 C 2.872329711914063 9.671829223632813 1 14.19202995300293 1 19 C 1 23.80797004699707 2.872329711914063 28.32817077636719 6.272079467773438 31.72792053222656 C 9.671829223632813 35.12767028808594 14.19202995300293 37 19 37 C 23.80797004699707 37 28.32817077636719 35.12767028808594 31.72792053222656 31.72792053222656 C 35.12767028808594 28.32817077636719 37 23.80797004699707 37 19 C 37 14.19202995300293 35.12767028808594 9.671829223632813 31.72792053222656 6.272079467773438 C 28.32817077636719 2.872329711914063 23.80797004699707 1 19 1 M 19 0 C 29.49341011047363 0 38 8.506589889526367 38 19 C 38 29.49341011047363 29.49341011047363 38 19 38 C 8.506589889526367 38 0 29.49341011047363 0 19 C 0 8.506589889526367 8.506589889526367 0 19 0 Z" stroke="none" fill="#fff"/>
        </g>
      </g>
      <path id="LinkedIn" d="M16.848,20.028v6.607H13.237V20.471c0-1.549-.522-2.606-1.829-2.606a1.992,1.992,0,0,0-1.853,1.4,2.769,2.769,0,0,0-.12.934v6.435H5.823s.049-10.441,0-11.523H9.435v1.633c-.007.012-.017.025-.024.037h.024v-.037a3.56,3.56,0,0,1,3.255-1.9C15.066,14.842,16.848,16.489,16.848,20.028ZM2.044,9.558A1.935,1.935,0,0,0,0,11.548,1.925,1.925,0,0,0,2,13.54H2.02a1.936,1.936,0,0,0,2.043-1.992A1.928,1.928,0,0,0,2.044,9.558ZM.215,26.635H3.825V15.113H.215Z" transform="translate(-211.276 6838.202)" fill="#fff"/>
    </g>
  </g>
</svg>
