<svg xmlns="http://www.w3.org/2000/svg" width="38" height="38" viewBox="0 0 38 38">
  <g id="Group_129" data-name="Group 129" transform="translate(124 -6994)">
    <g id="Group_128" data-name="Group 128" transform="translate(-265 -19)">
      <path id="Path_32" data-name="Path 32" d="M132.392,7.157V5.275a4.148,4.148,0,0,1,.039-.656,1.273,1.273,0,0,1,.179-.457.731.731,0,0,1,.451-.311,3.208,3.208,0,0,1,.829-.086h1.882V0h-3.009a4.9,4.9,0,0,0-3.751,1.239,5.22,5.22,0,0,0-1.14,3.652V7.157h-2.254v3.764h2.253V21.843h4.52V10.922H135.4l.4-3.764Z" transform="translate(29.896 7020.773)" fill="#fff"/>
      <g id="Ellipse_1" data-name="Ellipse 1" transform="translate(141 7013)" fill="none" stroke="#fff" stroke-width="1">
        <circle cx="19" cy="19" r="19" stroke="none"/>
        <circle cx="19" cy="19" r="18.5" fill="none"/>
      </g>
    </g>
  </g>
</svg>
