<svg xmlns="http://www.w3.org/2000/svg" width="88.997" height="89" viewBox="0 0 88.997 89">
  <g id="Group_133" data-name="Group 133" transform="translate(-1471.037 -3986)">
    <path id="Path_57" data-name="Path 57" d="M27.2,172.435a1.738,1.738,0,0,0-2.8.478L.575,222.626q-.02.04-.037.082a5.883,5.883,0,0,0,1.177,6.628,5.7,5.7,0,0,0,4.08,1.707,6.616,6.616,0,0,0,2.548-.53l.082-.037,49.713-23.831a1.738,1.738,0,0,0,.478-2.8Zm-.723,4.194,17.585,17.585c-6.8-.28-14.271-2.9-22.27-7.811ZM6.967,227.32a2.478,2.478,0,0,1-2.794-.442,2.479,2.479,0,0,1-.442-2.794L8.422,214.3a96.253,96.253,0,0,0,10.14,7.465Zm34.067-16.331a46.067,46.067,0,0,1-6.423-2.13,1.738,1.738,0,1,0-1.325,3.214q1.544.637,3.074,1.157l-14.071,6.745a91.13,91.13,0,0,1-12.315-8.917l4.863-10.145c1.489,1.176,2.99,2.3,4.483,3.342a1.738,1.738,0,0,0,2-2.846c-1.644-1.152-3.3-2.4-4.937-3.712l3.9-8.144c8.921,5.424,17.307,8.161,25,8.161q1.113,0,2.208-.078l6.934,6.934Z" transform="translate(1471.029 3843.957)" fill="#0160ff"/>
    <path id="Path_58" data-name="Path 58" d="M171.282,20.258a9.418,9.418,0,0,1,1.068,1.073c-.24.27-.727.712-1.069,1.023a5.642,5.642,0,0,0,3.532,9.808c.091,0,.181.006.272.006a5.6,5.6,0,0,0,3.791-1.469,17.157,17.157,0,0,0,2.908-3.183,10.735,10.735,0,0,0,1.916-6.211c0-5.014-2.563-7.341-4.824-9.4a9.425,9.425,0,0,1-1.068-1.073c.24-.269.726-.711,1.069-1.023a5.642,5.642,0,0,0-7.593-8.347,17.141,17.141,0,0,0-2.908,3.184,10.733,10.733,0,0,0-1.916,6.211c0,5.014,2.563,7.342,4.824,9.395Zm3.694,8.432a2.166,2.166,0,0,1-1.357-3.764c.434-.394.852-.774,1.2-1.146l1.652,1.669a1.943,1.943,0,0,1,.033,2.706,2.145,2.145,0,0,1-1.527.535Zm5.246-7.384a7.3,7.3,0,0,1-.492,2.713A5.411,5.411,0,0,0,178.941,23l-4.472-4.517-.008-.007c-.274-.278-.563-.541-.842-.794-2.059-1.869-3.685-3.346-3.685-6.821a7.3,7.3,0,0,1,.492-2.713,5.411,5.411,0,0,0,.789,1.014l4.472,4.517.009.008c.274.277.562.54.841.793,2.059,1.869,3.685,3.346,3.685,6.821ZM175.076,3.477l.1,0a2.166,2.166,0,0,1,1.354,3.766c-.433.393-.85.772-1.2,1.143l-1.652-1.669a1.943,1.943,0,0,1-.032-2.706,2.147,2.147,0,0,1,1.422-.537Z" transform="translate(1333.51 3986)" fill="#0160ff"/>
    <path id="Path_59" data-name="Path 59" d="M367.8,73.806a5.221,5.221,0,0,0,7.374,0l2.458-2.458a5.22,5.22,0,0,0,0-7.374l-2.458-2.458a5.22,5.22,0,0,0-7.374,0l-2.458,2.458a5.224,5.224,0,0,0,0,7.374Zm0-7.374,2.458-2.458a1.748,1.748,0,0,1,2.458,0l2.458,2.458a1.748,1.748,0,0,1,0,2.458l-2.458,2.458a1.748,1.748,0,0,1-2.458,0L367.8,68.889a1.748,1.748,0,0,1,0-2.458Z" transform="translate(1170.454 3936.437)" fill="#0160ff"/>
    <path id="Path_60" data-name="Path 60" d="M357.3,250.856a5.642,5.642,0,0,0-7.972.377c-.31.341-.752.828-1.022,1.068a9.435,9.435,0,0,1-1.073-1.069c-2.053-2.261-4.381-4.823-9.395-4.823a10.733,10.733,0,0,0-6.211,1.916,17.148,17.148,0,0,0-3.183,2.907c-.021.023-.041.048-.062.072h0a5.641,5.641,0,0,0,8.411,7.519c.309-.341.751-.827,1.02-1.066a9.393,9.393,0,0,1,1.073,1.068c2.053,2.261,4.381,4.824,9.4,4.824a10.734,10.734,0,0,0,6.211-1.916,17.158,17.158,0,0,0,3.183-2.907,5.649,5.649,0,0,0-.375-7.97Zm-5.4,2.715a2.165,2.165,0,0,1,3.23,2.883,1.943,1.943,0,0,1-2.705-.033l-1.669-1.652C351.131,254.422,351.511,254,351.9,253.571Zm-17.681,2.915a2.165,2.165,0,0,1-3.23-2.884,1.943,1.943,0,0,1,2.7.034l1.669,1.652c-.371.347-.75.764-1.144,1.2Zm7.24,0c-.254-.28-.517-.569-.8-.843l-.006-.007-4.517-4.472a5.417,5.417,0,0,0-1.014-.789,7.3,7.3,0,0,1,2.713-.492c3.475,0,4.952,1.626,6.822,3.685.253.279.515.567.793.84l.009.01,4.517,4.472a5.419,5.419,0,0,0,1.014.789,7.3,7.3,0,0,1-2.713.492C344.809,260.173,343.332,258.547,341.463,256.488Z" transform="translate(1200.889 3782.42)" fill="#0160ff"/>
    <path id="Path_61" data-name="Path 61" d="M465.962,31.305a1.738,1.738,0,1,0,0-3.476h0a1.738,1.738,0,0,0,0,3.476Z" transform="translate(1087.5 3963.008)" fill="#0160ff"/>
    <path id="Path_62" data-name="Path 62" d="M329.343,24.086a1.738,1.738,0,0,0,0-3.476h0a1.738,1.738,0,1,0,0,3.476Z" transform="translate(1200.373 3968.972)" fill="#0160ff"/>
    <path id="Path_63" data-name="Path 63" d="M298.054,114.771a1.738,1.738,0,0,0,0-3.476h0a1.738,1.738,0,0,0,0,3.476Z" transform="translate(1226.223 3894.049)" fill="#0160ff"/>
    <path id="Path_64" data-name="Path 64" d="M290.421,206.849a1.738,1.738,0,0,0,0-3.476h0a1.738,1.738,0,1,0,0,3.476Z" transform="translate(1232.53 3817.976)" fill="#0160ff"/>
    <path id="Path_65" data-name="Path 65" d="M471.446,166.185h0a1.738,1.738,0,1,0,1.738-1.74A1.738,1.738,0,0,0,471.446,166.187Z" transform="translate(1081.532 3850.136)" fill="#0160ff"/>
    <path id="Path_66" data-name="Path 66" d="M380.76,197.475h0a1.738,1.738,0,1,0,1.738-1.739A1.738,1.738,0,0,0,380.76,197.476Z" transform="translate(1156.456 3824.284)" fill="#0160ff"/>
    <path id="Path_67" data-name="Path 67" d="M146.611,363.842h0a1.738,1.738,0,1,0,1.74,1.738A1.738,1.738,0,0,0,146.609,363.842Z" transform="translate(1351.344 3685.398)" fill="#0160ff"/>
  </g>
</svg>
