<svg xmlns="http://www.w3.org/2000/svg" width="96" height="96" viewBox="0 0 96 96">
  <g id="Group_131" data-name="Group 131" transform="translate(-912.5 -3982.5)">
    <path id="Path_55" data-name="Path 55" d="M10,53.167a17.16,17.16,0,0,0,24.514,0L54.125,33.555A17.334,17.334,0,1,0,29.611,9.041L27.16,11.493" transform="translate(940.794 3987.239)" fill="none" stroke="#0160ff" stroke-linecap="round" stroke-linejoin="round" stroke-width="7"/>
    <path id="Path_56" data-name="Path 56" d="M53.167,14.1a17.16,17.16,0,0,0-24.514,0L9.041,33.711A17.334,17.334,0,0,0,33.555,58.225l2.451-2.451" transform="translate(917.239 4006.695)" fill="none" stroke="#0160ff" stroke-linecap="round" stroke-linejoin="round" stroke-width="7"/>
    <line id="Line_103" data-name="Line 103" y1="10" transform="translate(980 4065)" fill="none" stroke="#0160ff" stroke-linecap="round" stroke-linejoin="round" stroke-width="7"/>
    <line id="Line_104" data-name="Line 104" x2="10" transform="translate(995 4050)" fill="none" stroke="#0160ff" stroke-linecap="round" stroke-linejoin="round" stroke-width="7"/>
    <line id="Line_105" data-name="Line 105" x2="11" transform="translate(916 4011)" fill="none" stroke="#0160ff" stroke-linecap="round" stroke-linejoin="round" stroke-width="7"/>
    <line id="Line_106" data-name="Line 106" y2="11" transform="translate(941 3986)" fill="none" stroke="#0160ff" stroke-linecap="round" stroke-linejoin="round" stroke-width="7"/>
  </g>
</svg>
