<svg xmlns="http://www.w3.org/2000/svg" width="112.401" height="92.301" viewBox="0 0 112.401 92.301">
  <g id="Group_131" data-name="Group 131" transform="translate(-643 -3009)">
    <path id="Path_37" data-name="Path 37" d="M1561.222,312.486v-8.522q0-6.263,0-12.527a3.4,3.4,0,1,1,6.793-.01c.044,6.058.016,12.117.017,18.176v2.882h2.9q16.949,0,33.9,0c9.975.007,16,6.073,16,16.1q0,17.931-.006,35.862c-.017,9.524-6.149,15.682-15.652,15.688q-40.529.026-81.057,0c-9.646-.008-15.7-6.222-15.68-15.91.026-12.117,0-24.235.011-36.353.01-9.132,6.3-15.371,15.465-15.375q17.194-.008,34.388-.008Zm3.526,6.93V319.4c-13.5,0-27.007-.027-40.51.013-5.653.017-8.933,2.889-9.008,8.421q-.252,18.536.008,37.078c.077,5.388,3.468,8.336,8.869,8.339q40.518.023,81.037,0c5.3,0,8.747-2.839,8.835-8.1q.315-18.9-.029-37.81c-.1-5.189-3.447-7.918-8.695-7.927Q1585,319.392,1564.748,319.417Z" transform="translate(-865.434 2721.152)" fill="#0160ff"/>
    <path id="Path_38" data-name="Path 38" d="M1558.444,387.76c0-2.755-.041-5.116.011-7.475.058-2.608,1.455-4.208,3.517-4.154,2.116.055,3.36,1.588,3.4,4.266.031,2.354.007,4.708.007,7.366,2.657,0,5.086-.029,7.513.008,2.625.041,4.128,1.384,4.059,3.546-.066,2.087-1.457,3.266-4.019,3.31-2.43.042-4.86.009-7.557.009,0,2.753.032,5.187-.009,7.619-.043,2.514-1.275,3.947-3.352,4.009-2.032.061-3.445-1.389-3.532-3.842-.088-2.508-.02-5.022-.02-7.781-2.809,0-5.246.037-7.681-.01-2.512-.049-3.9-1.306-3.911-3.424-.008-2.049,1.492-3.4,3.908-3.437C1553.219,387.732,1555.664,387.76,1558.444,387.76Z" transform="translate(-884.98 2676.254)" fill="#0160ff"/>
    <path id="Path_39" data-name="Path 39" d="M1668.432,381.366a4.524,4.524,0,1,1,9.044.171,4.524,4.524,0,1,1-9.044-.171Z" transform="translate(-946.806 2675.905)" fill="#0160ff"/>
    <path id="Path_40" data-name="Path 40" d="M1652.354,397.666a4.526,4.526,0,1,1-.018,9.05,4.475,4.475,0,0,1-4.566-4.441A4.358,4.358,0,0,1,1652.354,397.666Z" transform="translate(-936.297 2665.301)" fill="#0160ff"/>
    <path id="Path_41" data-name="Path 41" d="M1693.3,406.7a4.489,4.489,0,0,1-4.42-4.576,4.429,4.429,0,0,1,4.743-4.455,4.364,4.364,0,0,1,4.417,4.528A4.455,4.455,0,0,1,1693.3,406.7Z" transform="translate(-957.204 2665.297)" fill="#0160ff"/>
    <path id="Path_42" data-name="Path 42" d="M1668.443,422.71a4.529,4.529,0,1,1,9.054-.17,4.4,4.4,0,0,1-4.58,4.642A4.346,4.346,0,0,1,1668.443,422.71Z" transform="translate(-946.812 2654.945)" fill="#0160ff"/>
  </g>
</svg>
