<svg xmlns="http://www.w3.org/2000/svg" width="112.602" height="84.974" viewBox="0 0 112.602 84.974">
  <g id="Group_130" data-name="Group 130" transform="translate(-1425 -2577)">
    <path id="Path_35" data-name="Path 35" d="M1065,343.268h-2.558c-11.792,0-23.584.043-35.376-.016a7.783,7.783,0,0,1-8-6.578c-.572-4.585,1.582-8.193,5.688-9.329a12.451,12.451,0,0,1,3.261-.294q17.216-.032,34.433-.017h3.007c-1.27-1.344-2.073-2.228-2.912-3.076-2.322-2.345-4.7-4.639-6.981-7.021A8.166,8.166,0,1,1,1067,305.28c9.351,9.211,18.594,18.532,27.873,27.816a2.586,2.586,0,0,1-.021,4.112c-9.281,9.28-18.529,18.593-27.869,27.814a8.179,8.179,0,1,1-11.431-11.7c3-3.109,6.079-6.142,9.115-9.216C1064.768,344,1064.785,343.824,1065,343.268Z" transform="translate(406.022 2284.404)" fill="#0160ff"/>
    <path id="Path_36" data-name="Path 36" d="M1131.042,293.74c1.983-.821,4.246-1.908,6.61-2.69a3.139,3.139,0,0,0,2.535-3.391c.038-6.6.089-6.613,6.873-6.59,1.964.007,3.928.093,5.89.186,1.839.086,2.913,1.221,2.6,2.92-.892,4.9,1.447,6.864,5.879,8.214,4.823,1.468,4.744,1.939,8.466-1.8,1.581-1.588,3.109-1.834,4.7-.321,2.278,2.163,4.478,4.413,6.634,6.7,1.445,1.531,1.429,3.276-.28,4.494-3.622,2.581-3.389,5.2-1.749,9.163,1.682,4.065,3.509,6.082,7.95,5.347,1.884-.312,3.023.745,3.069,2.679q.115,4.833.065,9.669c-.018,2.142-1.193,3.314-3.314,2.926-4.443-.814-6.788,1.109-7.567,5.357a.58.58,0,0,1-.072.224c-2.407,3.473-2.06,6.359,1.547,8.891,1.932,1.356,1.7,3.241.134,4.866-2.075,2.147-4.178,4.272-6.357,6.312-1.556,1.458-3.314,1.674-4.659-.227-2.489-3.514-5.062-3.365-8.964-1.789-4.123,1.666-6.295,3.462-5.488,8.046.336,1.907-.817,3.013-2.705,3.055-3.376.076-6.758.091-10.134-.014a2.4,2.4,0,0,1-2.537-2.98c.832-4.579-1-7.056-5.514-7.924-1.339-.258-2.556-1.152-4.461-2.053,2.6-2.415,4.877-4.676,7.346-6.7a3.5,3.5,0,0,1,2.742-.113c13.7,4.284,27.553-3.416,30.755-17.4,2.073-9.054-.655-16.9-7.524-23.011-6.6-5.871-14.428-7.365-22.886-4.76-1.676.516-2.734.434-3.87-.932C1134.963,297.923,1133,295.891,1131.042,293.74Z" transform="translate(347.297 2295.934)" fill="#0160ff"/>
  </g>
</svg>
