<svg xmlns="http://www.w3.org/2000/svg" width="82.048" height="124.967" viewBox="0 0 82.048 124.967">
  <g id="Group_129" data-name="Group 129" transform="translate(-399 -2557)">
    <path id="Path_14" data-name="Path 14" d="M414.9,139.312a33.877,33.877,0,0,1,11.631,12.4,33.222,33.222,0,0,1,3.728,14.384c.111,2.656.448,4.416,3.142,5.733a8.845,8.845,0,0,1,5,7.914c.108,14.634,1.085,29.391-.415,43.879-2.262,21.855-20.736,36.752-42.051,35.819-21.188-.927-37.988-17.952-38.9-40.082-.513-12.506-.162-25.05-.114-37.576.018-4.74,1.9-8.6,6.347-10.682a3.085,3.085,0,0,0,2.023-3.3c.1-7.771,2-14.215,5.594-19.41,5.949-8.606,16.273-12.335,18.389-12.9C390.82,135.086,403.09,132.037,414.9,139.312Zm-5.382,53,.049.119c4.211-1.113,7.8-2.729,6.6-8.2.1-4.736,1.145-9.095,4.9-12.381,1.965-1.248,5-.78,5.18-4.627.622-13.383-10.34-26.517-23.779-28.019a13.676,13.676,0,0,0-9.7.065c-10.7,1.2-19.952,9.811-22.7,21.13-1.949,8.013-1.828,8.3,5.025,12,3.226,3.307,4.253,7.371,4.078,11.848-1.1,5.346,2.366,6.995,6.541,8.066l.019-.119c.062.844.691.887,1.318.933l.221-.021,1.565.809c6.6,2.233,13.115,2.636,19.428-.965C408.872,193.109,409.391,193.1,409.517,192.308ZM366.3,186.249l1.042.712c1.776.029,3.551.071,5.327.082a2.124,2.124,0,0,0,2.392-1.818c1.162-4.456-1.089-8.751-5.8-10.734a13.388,13.388,0,0,0-3.359.1c-4.64,1.329-4.621,5.065-4.515,8.912.106,3.815,2.911,2.488,4.9,2.759Zm60.583-11.734c-5.009,1.062-6.277,3.061-5.976,8.611.282,5.191,4.168,2.506,6.517,3.164a5.026,5.026,0,0,0,1.45-.029c1.847-.281,4.426.993,5.387-1.031a7.643,7.643,0,0,0-.865-7.451C431.872,175.445,429.868,173.968,426.879,174.515Zm-60.544,16.593c-3.56-.689-5.345.15-5.181,4.4.339,8.752-.389,17.569.319,26.278,1.142,14.036,8.5,24.127,21.395,30.039l1.976.821a1.9,1.9,0,0,0,1.976.821c8.854,2.986,8.854,2.986,8.848-6.307a10.881,10.881,0,0,1,.009-1.461c.414-3.041-.542-4.329-3.908-5.149-10.107-2.462-16.57-11.326-16.687-21.912-.072-6.5-.02-13-.021-19.5C375.059,190.681,375.06,190.681,366.335,191.108Zm44.851,61.42c12.618-4.521,19.626-13.931,22.471-26.573,2.161-9.6.408-19.454,1.055-29.162.311-4.669-1.013-6.791-5.881-5.7a26.445,26.445,0,0,1-2.92-.137c-4.36-.671-6.046.854-5.752,5.519.418,6.642.123,13.33.1,20-.047,13.362-5.082,20.3-17.957,24.405a3.271,3.271,0,0,0-2.7,3.354C398.485,256.071,400.157,257.3,411.186,252.529ZM379.041,194.3c0,8.069,0,15.7,0,23.332,0,.65-.011,1.3.024,1.949a18.545,18.545,0,0,0,17.959,17.7c9.754.315,18.48-6.784,19.067-16.38.533-8.706.113-17.471.113-26.27C397.33,201.415,395.13,201.4,379.041,194.3Z" transform="translate(42.234 2422.485)" fill="#263141"/>
    <path id="Path_15" data-name="Path 15" d="M475.233,183.177c-3.757,3.287-4.807,7.645-4.9,12.381-1.828,3.032-5.388,4.669-6.6,8.2,0,0-.049-.119-.05-.121q-.627.318-1.253.639c-6.313,3.6-12.825,3.2-19.429.965l-1.564-.809s-.221.021-.224.02l-1.315-.933s-.019.119-.018.117c-1.632-3.134-4.389-5.354-6.542-8.065.175-4.478-.852-8.541-4.078-11.848.194-3.855-.371-7.719.474-11.574,2.2-10.039,8.631-16.635,17.205-21.552a13.675,13.675,0,0,1,9.7-.065c2.034,2.424,5.241,3.033,7.594,5.138C472.515,163.08,475.519,172.427,475.233,183.177Z" transform="translate(-11.931 2411.158)" fill="#84e8ff"/>
    <path id="Path_17" data-name="Path 17" d="M536.978,418.973c-11.028,4.768-12.7,3.543-11.582-8.3a3.271,3.271,0,0,1,2.7-3.354c12.875-4.1,17.91-11.043,17.957-24.405.023-6.668.318-13.356-.1-20-.294-4.665,1.392-6.19,5.752-5.519a26.506,26.506,0,0,0,2.92.138q.008,14.556.011,29.112A34.4,34.4,0,0,1,544.6,411.057C542.073,413.71,539.519,416.335,536.978,418.973Z" transform="translate(-83.559 2256.041)" fill="#0160ff"/>
    <path id="Path_18" data-name="Path 18" d="M412.984,419.571l-1.975-.821a3.187,3.187,0,0,0-1.454-2.87c-10.454-8.137-14.843-19.18-15.061-32.091-.145-8.583-.022-17.171-.019-25.757,8.725-.428,8.724-.428,8.726,8.03,0,6.5-.051,13,.021,19.5.118,10.586,6.58,19.45,16.687,21.912,3.366.82,4.322,2.107,3.908,5.149a10.877,10.877,0,0,0-.009,1.461c.006,9.293.006,9.293-8.848,6.308A2.071,2.071,0,0,0,412.984,419.571Z" transform="translate(14.093 2255.562)" fill="#0160ff"/>
    <path id="Path_19" data-name="Path 19" d="M572.1,419c2.541-2.638,5.095-5.263,7.619-7.916a34.4,34.4,0,0,0,10.037-24.408q.016-14.556-.011-29.112c4.867-1.089,6.191,1.033,5.88,5.7-.646,9.708,1.106,19.558-1.055,29.162C591.728,405.066,584.72,414.476,572.1,419Z" transform="translate(-118.683 2256.017)" fill="#0160ff"/>
    <path id="Path_20" data-name="Path 20" d="M379.278,357.817c0,8.586-.126,17.174.019,25.757.217,12.911,4.607,23.955,15.061,32.091a3.187,3.187,0,0,1,1.454,2.87c-12.892-5.911-20.253-16-21.395-30.038-.709-8.709.019-17.526-.319-26.278C373.932,357.967,375.718,357.128,379.278,357.817Z" transform="translate(29.291 2255.776)" fill="#0160ff"/>
    <path id="Path_21" data-name="Path 21" d="M428.887,153.325c-8.574,4.917-15,11.513-17.205,21.552-.845,3.855-.279,7.719-.474,11.574-6.854-3.695-6.974-3.982-5.026-12C408.935,163.136,418.192,154.521,428.887,153.325Z" transform="translate(6.118 2408.429)" fill="#2cd8ff"/>
    <path id="Path_22" data-name="Path 22" d="M556.21,185.714c.286-10.749-2.718-20.1-11-27.509-2.353-2.1-5.56-2.713-7.594-5.138,13.438,1.5,24.4,14.636,23.778,28.019C561.212,184.934,558.176,184.467,556.21,185.714Z" transform="translate(-92.909 2408.621)" fill="#2cd8ff"/>
    <path id="Path_23" data-name="Path 23" d="M397.279,292.705c4.712,1.983,6.964,6.278,5.8,10.734a2.124,2.124,0,0,1-2.392,1.818c-1.776-.012-3.551-.054-5.327-.081l-1.043-.714-.01.011C394.127,300.254,394.441,296.161,397.279,292.705Z" transform="translate(14.21 2304.273)" fill="#0160ff"/>
    <path id="Path_24" data-name="Path 24" d="M618.4,304.539a5.024,5.024,0,0,1-1.45.029c-2.349-.658-6.236,2.028-6.517-3.164-.3-5.55.968-7.548,5.976-8.611A23.455,23.455,0,0,1,618.4,304.539Z" transform="translate(-147.293 2304.207)" fill="#0160ff"/>
    <path id="Path_25" data-name="Path 25" d="M636.192,304.2a23.456,23.456,0,0,0-1.991-11.746c2.989-.546,4.992.93,6.513,3.263a7.643,7.643,0,0,1,.865,7.451C640.618,305.2,638.039,303.922,636.192,304.2Z" transform="translate(-165.088 2304.543)" fill="#0160ff"/>
    <path id="Path_26" data-name="Path 26" d="M382.822,292.526c-2.839,3.456-3.153,7.549-2.97,11.768-1.993-.27-4.8,1.057-4.9-2.759-.107-3.847-.125-7.583,4.515-8.912A13.386,13.386,0,0,1,382.822,292.526Z" transform="translate(28.667 2304.452)" fill="#0160ff"/>
    <path id="Path_27" data-name="Path 27" d="M444.812,331.284c2.153,2.71,4.91,4.931,6.542,8.064C447.179,338.279,443.716,336.63,444.812,331.284Z" transform="translate(-23.408 2275.443)" fill="#2cd8ff"/>
    <path id="Path_28" data-name="Path 28" d="M565.689,339.437c1.213-3.527,4.772-5.164,6.6-8.2C573.486,336.708,569.9,338.324,565.689,339.437Z" transform="translate(-113.89 2275.476)" fill="#2cd8ff"/>
    <path id="Path_30" data-name="Path 30" d="M394.473,339.227l1.043.714Q394.994,339.582,394.473,339.227Z" transform="translate(14.056 2269.508)" fill="#766682"/>
    <path id="Path_31" data-name="Path 31" d="M471.377,362.732l1.315.933C472.068,363.619,471.439,363.576,471.377,362.732Z" transform="translate(-43.413 2251.943)" fill="#edd379"/>
    <path id="Path_32" data-name="Path 32" d="M560.536,363.835q.626-.32,1.253-.639C561.664,363.985,561.145,364,560.536,363.835Z" transform="translate(-110.04 2251.596)" fill="#edbe05"/>
    <path id="Path_33" data-name="Path 33" d="M477.466,366.342l1.564.809Z" transform="translate(-47.963 2249.245)" fill="#edd379"/>
  </g>
</svg>
