<svg xmlns="http://www.w3.org/2000/svg" width="108.832" height="125.025" viewBox="0 0 108.832 125.025">
  <path id="path4913" d="M16.663,0V23.442h15.72V33.957a46.992,46.992,0,1,0,61.6,35.621l15.888-9.172L94.239,33.347,90.866,35.3,78.336,42.535a46.882,46.882,0,0,0-14.88-8.577V23.442h15.72V0Zm7.814,7.814H71.362v7.814H24.477ZM40.2,23.442H55.642v8.5a46.767,46.767,0,0,0-7.722-.687,46.767,46.767,0,0,0-7.722.687v-8.5ZM47.919,39.07A39.07,39.07,0,1,1,8.849,78.14,39.012,39.012,0,0,1,47.919,39.07Zm43.466,4.945L99.2,57.552l-6.761,3.907L84.624,47.922ZM68.6,59.75,40.105,88.244,27.24,75.378,21.715,80.9l18.391,18.39L74.124,65.275Z" transform="translate(-1.035)" fill="#0160ff"/>
</svg>
