<svg xmlns="http://www.w3.org/2000/svg" width="81.825" height="104.779" viewBox="0 0 81.825 104.779">
  <g id="Group_132" data-name="Group 132" transform="translate(-1182 -3003)">
    <path id="Path_43" data-name="Path 43" d="M1863.764,340.607c15.662-.581,30.172-3.781,40.482-17.368,7.829,10.756,19.133,15.046,31.761,16.781.716.1,1.433.2,2.153.245,6.928.45,6.926.447,6.916,7.256-.014,9.515-.441,19.052.053,28.541.985,18.934-7.622,32.608-22.71,42.757-5.054,3.4-10.693,5.945-16.139,8.735a4.5,4.5,0,0,1-3.355.239c-13.506-5.7-25.689-13.139-33.619-26.061a36.636,36.636,0,0,1-5.792-18.755c-.2-13.367-.111-26.739-.119-40.108A14.99,14.99,0,0,1,1863.764,340.607Zm7.564,7.46c0,12.129-.023,23.924.031,35.72a19.759,19.759,0,0,0,.668,4.269c2.626,11.45,10.3,19.012,19.595,25.293,11.263,7.608,13.131,7.695,24.62.331,11.162-7.153,20.06-16.241,20.84-30.277.647-11.638.132-23.342.132-35.324-12.208-1.477-23.525-5.1-33-13.218C1894.609,343.079,1883.366,346.595,1871.328,348.068Z" transform="translate(-681.381 2679.76)" fill="#0160ff"/>
    <path id="Path_44" data-name="Path 44" d="M1929.2,392.243c0,6.695.133,13.078-.1,19.447a6.151,6.151,0,0,1-2.217,4.114c-7.155,5.391-18.17,5.491-25.371.249a6.154,6.154,0,0,1-2.463-3.993c-.258-6.489-.114-12.993-.114-19.817Zm-14.138,18.438c.666-2.968,1.379-5.4,1.688-7.887a3.781,3.781,0,0,0-1.082-3.044,3.382,3.382,0,0,0-3.172-.027c-.751.531-1.459,2.624-1.128,2.947,2.534,2.47.857,5.267.667,8.012Z" transform="translate(-691.202 2660.678)" fill="#0160ff"/>
    <path id="Path_45" data-name="Path 45" d="M1921.561,382.731c0-2.906.078-5.418-.018-7.923-.151-3.928-2.4-6.255-5.934-6.316-3.749-.065-6.085,2.261-6.3,6.342-.071,1.32-.015,2.646-.016,3.97,0,1.187,0,2.374,0,3.826h-5.4c.39-4.084.229-8.32,1.311-12.211,1.33-4.786,6.466-7.494,11.376-6.993,4.8.489,9.009,3.969,9.7,8.786.485,3.37.093,6.866.093,10.519Z" transform="translate(-692.583 2668.663)" fill="#0160ff"/>
  </g>
</svg>
