<svg xmlns="http://www.w3.org/2000/svg" width="38" height="38" viewBox="0 0 38 38">
  <g id="Group_130" data-name="Group 130" transform="translate(-199 -7013)">
    <path id="twitter_1_" data-name="twitter (1)" d="M21.019,50.022a8.984,8.984,0,0,1-2.483.68,4.285,4.285,0,0,0,1.9-2.382A8.612,8.612,0,0,1,17.7,49.364a4.309,4.309,0,0,0-7.454,2.947,4.437,4.437,0,0,0,.1.983,12.2,12.2,0,0,1-8.882-4.507,4.31,4.31,0,0,0,1.324,5.759,4.255,4.255,0,0,1-1.947-.531v.047A4.329,4.329,0,0,0,4.293,58.3a4.3,4.3,0,0,1-1.13.142,3.81,3.81,0,0,1-.816-.074,4.35,4.35,0,0,0,4.026,3A8.658,8.658,0,0,1,1.031,63.2,8.071,8.071,0,0,1,0,63.144,12.131,12.131,0,0,0,6.61,65.078,12.18,12.18,0,0,0,18.875,52.816c0-.19-.007-.374-.016-.557A8.6,8.6,0,0,0,21.019,50.022Z" transform="translate(207.147 6974.76)" fill="#fff"/>
    <g id="Ellipse_2" data-name="Ellipse 2" transform="translate(199 7013)" fill="none" stroke="#fff" stroke-width="1">
      <circle cx="19" cy="19" r="19" stroke="none"/>
      <circle cx="19" cy="19" r="18.5" fill="none"/>
    </g>
  </g>
</svg>
