<svg xmlns="http://www.w3.org/2000/svg" width="38" height="38" viewBox="0 0 38 38">
  <g id="Group_131" data-name="Group 131" transform="translate(-255 -7013)">
    <g id="Ellipse_3" data-name="Ellipse 3" transform="translate(255 7013)" fill="none" stroke="#fff" stroke-width="1">
      <circle cx="19" cy="19" r="19" stroke="none"/>
      <circle cx="19" cy="19" r="18.5" fill="none"/>
    </g>
    <path id="LinkedIn" d="M16.848,20.028v6.607H13.237V20.471c0-1.549-.522-2.606-1.829-2.606a1.992,1.992,0,0,0-1.853,1.4,2.769,2.769,0,0,0-.12.934v6.435H5.823s.049-10.441,0-11.523H9.435v1.633c-.007.012-.017.025-.024.037h.024v-.037a3.56,3.56,0,0,1,3.255-1.9C15.066,14.842,16.848,16.489,16.848,20.028ZM2.044,9.558A1.935,1.935,0,0,0,0,11.548,1.925,1.925,0,0,0,2,13.54H2.02a1.936,1.936,0,0,0,2.043-1.992A1.928,1.928,0,0,0,2.044,9.558ZM.215,26.635H3.825V15.113H.215Z" transform="translate(266.724 7013.202)" fill="#fff"/>
  </g>
</svg>
