<svg xmlns="http://www.w3.org/2000/svg" width="38" height="38" viewBox="0 0 38 38">
  <g id="Group_132" data-name="Group 132" transform="translate(-313 -7013)">
    <path id="XMLID_799_" d="M45.44,1.75A7.066,7.066,0,0,0,40.633,0,7.75,7.75,0,0,0,35.06,2.048a5.914,5.914,0,0,0-1.879,4.194,3.9,3.9,0,0,0,2.232,3.9.771.771,0,0,0,.281.055.618.618,0,0,0,.609-.479c.047-.169.156-.586.2-.768a.7.7,0,0,0-.2-.779,2.408,2.408,0,0,1-.592-1.7,4.378,4.378,0,0,1,4.645-4.3c2.394,0,3.881,1.3,3.881,3.383A6.763,6.763,0,0,1,43.4,9a2.476,2.476,0,0,1-2.051,1.367A1.388,1.388,0,0,1,40.267,9.9a1.141,1.141,0,0,1-.218-1.029c.107-.43.252-.879.393-1.313a7.8,7.8,0,0,0,.5-2.139A1.586,1.586,0,0,0,39.3,3.706a2.5,2.5,0,0,0-2.223,2.747,3.92,3.92,0,0,0,.306,1.537c-.157.634-1.09,4.4-1.267,5.115-.1.415-.719,3.693.3,3.954,1.147.294,2.172-2.9,2.276-3.259.085-.293.38-1.4.562-2.085a3.564,3.564,0,0,0,2.312.852,5.248,5.248,0,0,0,4.141-1.974,7.67,7.67,0,0,0,1.557-4.846A5.468,5.468,0,0,0,45.44,1.75Z" transform="translate(292.126 7022.76)" fill="#fff"/>
    <g id="Ellipse_4" data-name="Ellipse 4" transform="translate(313 7013)" fill="none" stroke="#fff" stroke-width="1">
      <circle cx="19" cy="19" r="19" stroke="none"/>
      <circle cx="19" cy="19" r="18.5" fill="none"/>
    </g>
  </g>
</svg>
